<svg id="Ebene_1" data-name="Ebene 1" xmlns="http://www.w3.org/2000/svg" viewBox="0 0 300 300"><defs><style>.cls-1{fill:#ee766d;}.cls-2{fill:#fff;}</style></defs><title>facebook</title><path d="M177.07,98.86Z" transform="translate(0.1)"/><circle class="cls-1" cx="150" cy="150" r="150"/><path class="cls-2" d="M189.08,72.06l-20.24,0C146.1,72,131.4,87.1,131.4,110.43v17.71H111.05a3.18,3.18,0,0,0-3.18,3.19V157a3.18,3.18,0,0,0,3.18,3.18H131.4v64.75a3.18,3.18,0,0,0,3.19,3.18h26.55a3.19,3.19,0,0,0,3.18-3.18V160.17h23.79a3.18,3.18,0,0,0,3.18-3.18V131.33a3.19,3.19,0,0,0-3.18-3.19h-23.8v-15c0-7.21,1.72-10.88,11.12-10.88h13.63a3.18,3.18,0,0,0,3.18-3.19V75.24A3.17,3.17,0,0,0,189.08,72.06Z" transform="translate(0.1)"/></svg>