<svg id="Ebene_1" data-name="Ebene 1" xmlns="http://www.w3.org/2000/svg" viewBox="0 0 300 300"><defs><style>.cls-1{fill:#ee766d;}.cls-2{fill:#fff;}</style></defs><title>github</title><path d="M177.07,98.86Z" transform="translate(0.1)"/><circle class="cls-1" cx="150" cy="150" r="150"/><path class="cls-2" d="M150,71.9A78.1,78.1,0,1,0,228.1,150,78.1,78.1,0,0,0,150,71.9Zm46.38,124.48a65.3,65.3,0,0,1-20.85,14.06q-3,1.26-6,2.21V201q0-9.22-6.33-13.58a66.71,66.71,0,0,0,7.28-1.07,53.14,53.14,0,0,0,7-2,34.4,34.4,0,0,0,6.63-3.09,28.06,28.06,0,0,0,10.18-11.13,35.62,35.62,0,0,0,2.9-8.7,54.38,54.38,0,0,0,1.07-11.17,28.61,28.61,0,0,0-7.7-20.14q3.51-9.15-.77-19.9l-1.9-.23q-2-.22-7.13,1.68a55.19,55.19,0,0,0-11.56,6.25,70.09,70.09,0,0,0-18.84-2.52,68.7,68.7,0,0,0-18.76,2.52,66.13,66.13,0,0,0-7.66-4.54,39.93,39.93,0,0,0-5.8-2.44,20,20,0,0,0-4-.8,14.88,14.88,0,0,0-2.41-.08,6.17,6.17,0,0,0-.76.16q-4.27,10.83-.76,19.9a28.56,28.56,0,0,0-7.7,20.14,54.41,54.41,0,0,0,1.06,11.17,36,36,0,0,0,2.9,8.7,28.26,28.26,0,0,0,10.18,11.13,34.22,34.22,0,0,0,6.64,3.09,52.3,52.3,0,0,0,7,2,66.71,66.71,0,0,0,7.28,1.07q-6.25,4.27-6.25,13.58v11.93a62.09,62.09,0,0,1-6.81-2.44,65.68,65.68,0,1,1,71.91-14.06Z" transform="translate(0.1)"/></svg>