<svg id="Ebene_1" data-name="Ebene 1" xmlns="http://www.w3.org/2000/svg" viewBox="0 0 300 300"><defs><style>.cls-1{fill:#ee766d;}.cls-2{fill:#fff;}</style></defs><title>xing</title><path d="M177.07,98.86Z" transform="translate(0.1)"/><circle class="cls-1" cx="150" cy="150" r="150"/><path class="cls-2" d="M125.36,108.5q-2.37-4.11-6-4.11H97.53a3.12,3.12,0,0,0-2.92,1.37c-.67.91-.64,2,.09,3.38l14.69,25.46q.09.09,0,.09L86.3,175.57a3.18,3.18,0,0,0,0,3.29,3,3,0,0,0,2.83,1.55h21.81q3.47,0,5.93-4.19,22.55-40,23.46-41.62Z" transform="translate(0.1)"/><path class="cls-2" d="M213.88,79.39a3.08,3.08,0,0,0,0-3.38,3,3,0,0,0-2.83-1.37h-22q-3.56,0-5.84,4.11l-48.46,86,30.94,56.76c1.46,2.74,3.46,4.11,6,4.11h21.81a3.26,3.26,0,0,0,2.92-1.37,3.22,3.22,0,0,0-.09-3.38L165.7,164.72v-.09Z" transform="translate(0.1)"/></svg>